<svg xmlns="http://www.w3.org/2000/svg" viewBox="0 0 64 64" role="img" aria-label="Shadcn Blocks">
  <defs>
    <linearGradient id="bg" x1="0%" y1="0%" x2="100%" y2="100%">
      <stop offset="0%" stop-color="#10b981" />
      <stop offset="100%" stop-color="#0e7490" />
    </linearGradient>
  </defs>
  <rect width="64" height="64" rx="16" fill="url(#bg)" />
  <circle cx="32" cy="32" r="23" fill="#f8fafc" />
  <path d="M39.7 21.6c-2-1.3-4.5-2-7.3-2-5.8 0-10 2.8-10 7.1 0 10 15 5.2 15 11.2 0 1.6-1.7 2.8-4.6 2.8-2.7 0-5.5-.9-7.8-2.5l-2.4 4.9c2.6 1.8 6.3 2.9 10.1 2.9 6 0 10.3-2.9 10.3-7.4 0-10.1-15-5.5-15-11.3 0-1.4 1.5-2.4 4.1-2.4 2 0 4.2.6 6.5 1.8l2.1-5.1z" fill="#0f172a" />
</svg>
